<svg 
		viewBox="0 0 128 128" 
		xmlns="http://www.w3.org/2000/svg" 
		xmlns:xlink="///">

		<style>
		.AAA {
			fill: #303031;
		}
		
		</style>

		<path class="AAA" d="M64,115.5c-28.397,0-51.5-23.103-51.5-51.5S35.603,12.5,64,12.5s51.5,23.103,51.5,51.5    S92.397,115.5,64,115.5z M64,15.5c-26.743,0-48.5,21.757-48.5,48.5s21.757,48.5,48.5,48.5s48.5-21.757,48.5-48.5    S90.743,15.5,64,15.5z"/>
		
		<path class="AAA" d="M64.064,89.247c0,0,12.271-7.245,20.167-18.421C89,64.075,89,58.468,89,58.468    c0-7.574-6.14-13.714-13.714-13.714c-4.39,0-8.332,1.927-10.842,5.136L64,50.432l-0.443-0.543    c-2.51-3.209-6.453-5.136-10.843-5.136C45.14,44.753,39,50.893,39,58.468c0,0,0,5.607,4.77,12.359    c7.895,11.175,20.16,18.417,20.16,18.417L64.064,89.247z"/>

</svg>